<svg xmlns="http://www.w3.org/2000/svg" viewBox="0 -0.1 70.7 89.5" style="fill:#000" aria-label="Tiny Plant Hand Drawn Intricate Illustration"><defs><clipPath id="a"><path d="M16 12h54.66v71H16z"/></clipPath><clipPath id="b"><path d="M16 76h25v13.422H16z"/></clipPath></defs><g clip-path="url(#a)"><path d="M70.613 82.383c-7.011-3.262-13.972-6.766-20.324-11.266-6.336-4.555-11.73-10.176-17.059-15.785-2.621-2.84-5.39-5.582-7.546-8.894-2.153-3.317-3.52-7.032-4.657-10.735a131.934 131.934 0 0 1-5.004-22.695l.098-.016a231.504 231.504 0 0 0 5.887 22.403c1.191 3.656 2.457 7.304 4.469 10.539 2.027 3.218 4.683 6.066 7.164 9.031 2.523 2.926 5.125 5.793 7.976 8.402 2.832 2.633 5.934 4.942 9.145 7.071 6.371 4.332 13.183 7.992 19.898 11.855l-.047.09" style="fill:#eae0cc"/></g><path d="M20.012 18.805c-.621.769-1.442 1.511-2.524 1.613-1.101.055-2.047-.633-2.812-1.285-.774-.684-1.449-1.442-2.102-2.203a12.219 12.219 0 0 1-1.73-2.59c-.449-.949-.766-2.004-.782-3.098-.023-1.097.27-2.14.61-3.101a32.382 32.382 0 0 1 2.613-5.47c.254-.433.516-.866.785-1.288l.414-.633c.145-.203.223-.441.504-.648.301-.204.684-.075.891.09.226.163.398.382.539.59.289.41.594.808.871 1.23 1.145 1.652 2.223 3.37 3.066 5.219.809 1.843 1.481 3.816 1.524 5.894a9.198 9.198 0 0 1-.41 3.04 8.212 8.212 0 0 1-1.457 2.64zm-.078-.063c.625-.769 1.086-1.68 1.281-2.644a8.54 8.54 0 0 0 .039-2.918c-.305-1.922-.988-3.778-1.664-5.633-.692-1.844-1.496-3.68-2.57-5.356-.27-.418-.547-.832-.848-1.226-.258-.38-.707-.774-.988-.57-.133.09-.254.34-.383.55l-.356.653c-.234.441-.461.882-.675 1.332a48.306 48.306 0 0 0-2.204 5.511c-.3.93-.511 1.86-.464 2.77.05.914.304 1.82.707 2.672.386.863.929 1.668 1.515 2.441.614.789 1.184 1.606 1.817 2.34.632.715 1.39 1.406 2.343 1.473.961.039 1.832-.645 2.45-1.395M15.66 27.023c-.867-1.097-1.648-2.253-2.433-3.398-.379-.57-.778-1.109-1.243-1.535-.453-.426-1.023-.684-1.648-.926-.629-.238-1.309-.461-1.957-.82-.645-.36-1.203-.809-1.738-1.254-1.043-.891-2.196-1.793-3.551-1.817l.129-.312 2.008 1.68c.671.57 1.32 1.234 1.789 2.039.476.777.789 1.601 1.207 2.308.414.719.914 1.266 1.597 1.637.684.367 1.504.625 2.332.918l2.45.902c.816.293 1.625.625 2.433.946.41.16.785.332 1.176.363.191.016.406-.027.633-.043.218-.02.504.008.668.199l-.067.074c-.351-.222-.746.067-1.222.114-.489.054-.942-.09-1.356-.196-.844-.218-1.691-.429-2.523-.675l-2.508-.723c-.82-.266-1.691-.473-2.535-.945-.871-.45-1.535-1.289-1.942-2.094-.422-.817-.718-1.633-1.09-2.371-.738-1.449-2.07-2.641-3.292-3.867l-.348-.348.476.035c1.5.106 2.653 1.074 3.81 1.805.581.375 1.167.734 1.772.98.61.239 1.274.391 1.954.629.671.234 1.39.586 1.937 1.137.551.531.926 1.168 1.274 1.777.66 1.231 1.316 2.453 1.894 3.731l-.086.05M32.848 31.316c2.082-.234 4.175-.476 6.113-1.16a11.37 11.37 0 0 0 2.695-1.379 9.604 9.604 0 0 0 2.133-2.117c1.195-1.633 2.023-3.523 2.555-5.515.554-1.989.863-4.063 1.129-6.141l.261.199c-3.558 1.328-6.871 3.293-9.836 5.645-.742.582-1.453 1.207-2.168 1.828-.707.629-1.406 1.258-1.964 1.965-.571.703-.95 1.476-1.012 2.332-.086.859.121 1.765.199 2.769.039.5.035 1.031-.07 1.563-.113.531-.278.98-.461 1.445-.371.918-.809 1.781-1.231 2.621-.418.848-.804 1.688-1.05 2.555a24.35 24.35 0 0 0-.598 2.73c-.563 3.696-.324 7.543.863 11.164l-.094.035c-1.574-3.492-2.109-7.468-1.648-11.32.113-.969.277-1.914.508-2.875.258-.972.66-1.875 1.07-2.746.406-.871.848-1.707 1.188-2.559.172-.417.324-.867.418-1.269.09-.402.105-.832.082-1.281-.043-.895-.25-1.879-.133-2.926.098-1.059.625-2.059 1.281-2.805.66-.765 1.41-1.383 2.149-1.992a39.209 39.209 0 0 1 2.304-1.73c3.149-2.204 6.543-3.997 10.059-5.508l.289-.121-.027.32c-.176 2.09-.309 4.199-.762 6.285-.461 2.074-1.258 4.149-2.617 5.856-1.321 1.726-3.235 3.035-5.317 3.578-2.07.605-4.207.683-6.301.656l-.007-.102" style="fill:#eae0cc"/><path d="M31.449 32.965c.121-1.102-.133-2.156-.554-3.106-.422-.961-1.071-1.8-1.762-2.621a35.467 35.467 0 0 0-2.188-2.449 28.55 28.55 0 0 0-2.476-2.191l.324-.196c.328 1.25.691 2.489.988 3.743.281 1.257.594 2.507.836 3.773.254 1.25.465 2.48.969 3.594.504 1.093 1.277 2.117 2.441 2.676l-.027.093c-1.324-.226-2.445-1.23-3.133-2.39-.699-1.18-1.047-2.5-1.297-3.766-.258-1.262-.441-2.539-.66-3.809-.203-1.269-.34-2.558-.512-3.836l-.082-.601.411.406a27.82 27.82 0 0 0 2.484 2.211c.891.672 1.793 1.332 2.582 2.16.773.828 1.43 1.821 1.801 2.934.367 1.101.41 2.351-.047 3.398l-.098-.023M28.691 40.82c1.2.516 2.473.305 3.739.145 1.269-.168 2.511-.438 3.758-.719 1.246-.269 2.507-.59 3.691-1.105 1.183-.524 2.273-1.239 3.269-2.055l.114.488c-1.332-.129-2.617-.48-3.867-.812-1.247-.328-2.485-.594-3.704-.617a7.652 7.652 0 0 0-3.546.781 8.467 8.467 0 0 0-2.946 2.359l-.086-.051c.543-1.214 1.492-2.254 2.649-2.988 1.156-.723 2.535-1.172 3.933-1.168 1.399 0 2.715.383 3.965.781 1.254.395 2.449.868 3.692 1.18l.648.16-.535.328c-1.125.696-2.281 1.309-3.445 1.907-1.168.593-2.348 1.195-3.61 1.617a15.463 15.463 0 0 1-3.91.687c-1.277.059-2.789.043-3.863-.832l.054-.086M42.438 22.293c-.411 1.105-1.247 1.988-2.192 2.605-.492.297-1.043.485-1.519.778-.485.285-.911.644-1.317 1.035-.797.793-1.625 1.492-2.375 2.25a19.679 19.679 0 0 0-2.219 2.375l-.093-.039c.121-1.172.769-2.246 1.558-3.09a9.678 9.678 0 0 1 2.817-1.945c.507-.25 1.007-.508 1.445-.856.441-.34.801-.789 1.199-1.168.824-.73 1.672-1.34 2.617-2.008l.079.063" style="fill:#eae0cc"/><path d="M27.504 28.438c.473.449.742.878.91 1.382.063.262.059.578.184.825.117.25.336.429.574.589.496.301.918.684 1.262 1.192.296.515.48 1.246.168 1.844l-.098.003c-.348-.527-.645-.851-.961-1.257-.273-.422-.598-.871-.797-1.438-.113-.277-.23-.539-.418-.758-.183-.218-.469-.386-.656-.621a1.988 1.988 0 0 1-.266-1.738l.098-.023M38.07 38.07a5.082 5.082 0 0 1-2.3.668c-.399 0-.813-.093-1.208-.054-.398.031-.773.168-1.144.332-.73.351-1.484.578-2.242.773-.77.156-1.473.234-2.297.406l-.055-.082c.488-.734 1.332-1.121 2.09-1.355.781-.196 1.574-.317 2.395-.281.41.007.812-.008 1.195-.114.387-.097.754-.324 1.137-.445a4.362 4.362 0 0 1 2.418.055l.011.097M14.973 45.543c-.594-1.934-1.278-3.828-2.094-5.652-.84-1.797-1.824-3.563-3.371-4.711-.774-.571-1.645-1.055-2.516-1.61a18.894 18.894 0 0 1-2.449-1.863c-1.55-1.34-2.898-2.859-4.32-4.293l.3-.168c.758 3.356 1.73 6.727 3.536 9.621.902 1.438 1.964 2.77 3.261 3.821 1.27 1.074 2.817 1.773 4.364 2.582 1.543.816 3.004 1.628 4.609 2.125.801.265 1.633.484 2.469.73a44.88 44.88 0 0 1 2.48.84 37.84 37.84 0 0 1 9.18 4.902l-.055.086a51.705 51.705 0 0 0-9.41-4.16c-1.629-.535-3.281-.891-4.98-1.398-1.719-.493-3.293-1.383-4.782-2.211-1.488-.829-3.11-1.602-4.464-2.801-1.344-1.192-2.426-2.629-3.247-4.184-1.664-3.117-2.398-6.543-3.308-9.867L0 26.688l.477.472A47.807 47.807 0 0 0 5 31.148a34.284 34.284 0 0 0 2.45 1.696c.835.519 1.76.972 2.593 1.644 1.676 1.352 2.73 3.246 3.437 5.153a29.612 29.612 0 0 1 1.586 5.879l-.093.023" style="fill:#eae0cc"/><path d="M16.875 46.242c-1.23-.187-2.301.469-3.152 1.254-.86.801-1.719 1.777-2.75 2.508-1.024.746-2.164 1.308-3.32 1.785-1.16.473-2.325.899-3.52 1.262l.008-.348c1.472.375 2.968.664 4.425.711.727.008 1.45-.035 2.133-.215.688-.176 1.344-.472 1.992-.801 1.293-.683 2.504-1.531 3.676-2.484 1.168-.949 2.324-1.926 3.422-2.984l.078.062c-.836 1.293-1.855 2.457-2.957 3.535-1.09 1.075-2.316 2.098-3.726 2.817-1.395.754-3.094 1.109-4.672.929-1.59-.156-3.04-.73-4.477-1.222l-.605-.207.613-.141c1.191-.273 2.355-.699 3.414-1.316 1.066-.602 2.031-1.348 2.977-2.09.476-.375.941-.754 1.394-1.152.445-.407.914-.829 1.422-1.223.988-.777 2.445-1.32 3.656-.774l-.031.094M13.496 44.867c-.637-.664-.988-1.515-1.332-2.308-.332-.829-.644-1.512-1.144-2.168a9.809 9.809 0 0 0-1.723-1.887c-.672-.555-1.414-1.024-2.129-1.559a11.851 11.851 0 0 1-1.988-1.793 17.655 17.655 0 0 1-1.649-2.093 22.795 22.795 0 0 1-2.328-4.747l.09-.05c1.14 1.359 2.117 2.8 3.117 4.195a40.993 40.993 0 0 0 3.121 4.082c.578.641 1.242 1.207 1.961 1.707s1.504.942 2.164 1.609c.668.661 1.032 1.625 1.239 2.45.246.843.378 1.695.687 2.507l-.086.055" style="fill:#eae0cc"/><path d="M21.047 47.363c.164-1.359.594-2.679.191-3.859-.328-1.215-1.078-2.332-1.64-3.559-.594-1.211-1.168-2.437-1.91-3.566-.731-1.133-1.583-2.184-2.45-3.215l.617-.258a81.67 81.67 0 0 1 .7 3.485c.218 1.164.429 2.328.582 3.5.175 1.168.277 2.351.414 3.527.051.574.121 1.144.285 1.687.152.543.383 1.075.824 1.457l-.055.086c-.566-.265-.953-.82-1.222-1.367-.266-.562-.442-1.152-.582-1.746-.231-1.16-.5-2.316-.696-3.48a62.674 62.674 0 0 1-.519-3.512 75.815 75.815 0 0 1-.41-3.527l-.133-1.457.75 1.199c.723 1.152 1.406 2.324 2.148 3.457.731 1.14 1.563 2.215 2.321 3.347.742 1.122 1.465 2.329 1.754 3.766.156.699.093 1.496-.121 2.152-.2.668-.481 1.286-.75 1.911l-.098-.028" style="fill:#eae0cc"/><path d="M19.531 46.871c-.117-1.176-.34-2.215-.558-3.297-.09-.527-.172-1.136-.34-1.683-.168-.555-.43-1.071-.715-1.582-.594-1.008-1.055-2.067-1.465-3.145-.367-1.094-.664-2.215-.773-3.41l.093-.035c.711.965 1.227 2.004 1.676 3.07.403 1.078.762 2.18.981 3.328.121.571.269 1.133.508 1.66.226.535.601.989.835 1.567.403 1.133.434 2.457-.144 3.551l-.098-.024M41.184 74.664c-1.071-2.437-2.77-4.445-4.571-6.375-1.773-1.957-3.523-3.941-5.707-5.309-2.168-1.39-4.656-2.265-7.226-2.765-2.575-.5-5.235-.574-7.864-.406l.118-.254c2.187 3 4.847 5.648 7.8 7.843a31.143 31.143 0 0 0 4.68 2.883c1.633.824 3.367 1.446 5.121 2.02 1.75.57 3.551 1.117 5.317 1.601 1.777.461 3.535.743 5.328.399.902-.145 1.804-.367 2.738-.528a26.387 26.387 0 0 1 2.812-.308c1.883-.117 3.766.039 5.606.363l-.016.102c-1.851-.172-3.711-.118-5.543.09-1.847.187-3.582.707-5.445 1.109-1.879.43-3.918.25-5.73-.246a120.127 120.127 0 0 1-5.395-1.578c-3.57-1.157-7.047-2.879-9.957-5.282-2.945-2.371-5.375-5.269-7.574-8.281l-.176-.238.297-.016c2.648-.144 5.312-.156 7.973.172 2.648.332 5.308 1.106 7.613 2.574 2.316 1.481 4.07 3.575 5.762 5.594.839 1.024 1.687 2.063 2.421 3.184.715 1.133 1.313 2.343 1.711 3.617l-.093.035" style="fill:#eae0cc"/><path d="M22.688 85.977c1.859-1.2 3.753-2.25 5.699-3.231.984-.461 2-.883 2.953-1.414.961-.523 1.805-1.219 2.828-1.738 1.043-.547 2.227-.621 3.246-.817a21.174 21.174 0 0 0 3.07-.82c2.004-.656 3.836-1.738 5.368-3.32l.082.058c-1.024 1.993-2.973 3.481-5.09 4.266-1.063.398-2.18.613-3.289.746-1.133.148-2.188.074-3.18.395-2.023.691-3.75 2.195-5.59 3.375-1.887 1.125-3.918 2.019-6.055 2.593l-.042-.093" style="fill:#eae0cc"/><g clip-path="url(#b)"><path d="M33 77.609c1.434-.531 2.941-.871 4.504-.898.777.016 1.59.113 2.336.551.367.218.719.574.875 1.043.152.465.09.937-.008 1.343-1.031 3.079-3.289 5.508-5.957 7.145-2.676 1.648-5.789 2.484-8.863 2.602-3.09.136-6.129-.278-9.137-.829l-.629-.113.606-.254c1.48-.621 2.296-2.101 3.289-3.429.504-.668 1.082-1.344 1.859-1.821.785-.511 1.668-.652 2.406-.89 1.504-.465 2.938-1.27 4.344-2.121 1.418-.84 2.828-1.739 4.375-2.329zm.035.094c-1.543.582-2.871 1.574-4.183 2.57-1.317.981-2.668 2.02-4.301 2.602-.817.289-1.594.437-2.211.832-.641.379-1.18.953-1.719 1.555-.531.605-1.043 1.269-1.633 1.875-.59.609-1.308 1.14-2.133 1.425l-.023-.371c2.941.723 6.016.961 9.004.598 2.976-.375 5.894-1.238 8.367-2.863 2.473-1.578 4.535-3.895 5.68-6.508.222-.645.152-1.223-.403-1.633-.535-.406-1.269-.605-2-.687-1.48-.153-3.023.093-4.445.605" style="fill:#eae0cc"/></g><path d="M40.527 74.379c-1.898-1.399-3.613-2.953-5.332-4.488-.84-.797-1.672-1.614-2.621-2.282a13.598 13.598 0 0 0-3.066-1.605c-2.16-.813-4.391-1.504-6.543-2.422-2.074-.898-4.418-1.687-6.199-3.277l.054-.086c2.106 1.039 4.321 1.523 6.547 2.375 2.133.914 4.321 1.734 6.375 2.914 1.028.578 2.016 1.219 3.012 1.832s2.023 1.207 2.973 1.91c1.859 1.449 3.461 3.176 4.871 5.059l-.071.07M46.5 51.199c2.055-.816 3.809-2.207 5.172-3.883 1.351-1.691 2.402-3.628 3.008-5.699.293-1.031.519-2.07.468-3.121-.046-1.055-.261-2.113-.57-3.156-.64-2.09-1.488-4.145-2.609-6.039l.285.008c-2.063 2.984-4.016 6.144-4.938 9.625-.461 1.734-.652 3.5-.511 5.285.105 1.785.414 3.59.5 5.457.05.926.015 1.902-.141 2.793l-.394 2.722c-.215 1.762-.243 3.559-.02 5.332a22.488 22.488 0 0 0 3.812 10.004l-.078.063a20.145 20.145 0 0 1-4.597-9.942 19.917 19.917 0 0 1-.153-5.582c.172-1.812.633-3.593.528-5.355-.039-1.781-.305-3.594-.375-5.449a15.33 15.33 0 0 1 .769-5.528c1.196-3.543 3.34-6.562 5.317-9.617l.144-.226.145.234c1.148 1.906 2.183 3.891 2.968 5.996.391 1.055.711 2.168.766 3.336a9.328 9.328 0 0 1-.476 3.418c-.711 2.156-1.805 4.203-3.344 5.875-1.52 1.672-3.473 2.996-5.645 3.547l-.031-.098" style="fill:#eae0cc"/><path d="M46.508 57.984c.183-.75.699-1.355 1.242-1.882.555-.524 1.191-.957 1.871-1.332 1.363-.766 2.949-1.04 4.473-1.094 1.535-.051 3.035.097 4.531.304 1.496.208 2.973.536 4.41.981l.789.242-.726.305a60.87 60.87 0 0 0-4.211 1.933c-1.391.684-2.645 1.579-4.133 2.204-1.524.632-3.211.585-4.727.382-.742-.097-1.547-.089-2.324-.293-.379-.109-.789-.25-1.051-.586-.257-.343-.238-.789-.144-1.164zm.097.024c-.078.363-.085.777.157 1.054.25.262.621.376.992.411.746.074 1.496-.051 2.297-.086 1.551-.075 3.027-.071 4.433-.52.715-.195 1.422-.484 2.137-.781.715-.293 1.43-.594 2.125-.93a63.924 63.924 0 0 0 4.094-2.176l.058.547a61.826 61.826 0 0 0-4.386-.601 44.95 44.95 0 0 0-4.391-.192c-1.449.02-2.871.192-4.242.625a7.973 7.973 0 0 0-1.957.953c-.594.418-1.121.985-1.317 1.696M46.602 52.484c-.422-.964-1.016-1.808-1.649-2.609a17.042 17.042 0 0 0-2.098-2.211 39.183 39.183 0 0 0-2.41-1.957c-.84-.633-1.742-1.176-2.64-1.734l.273-.172c.25 1.289.66 2.535 1.043 3.777.395 1.238.809 2.473 1.41 3.551.586 1.105 1.407 1.922 2.512 2.644 1.055.743 2.242 1.454 3.09 2.512l-.071.07c-1.062-.773-2.281-1.23-3.449-1.878-.582-.325-1.187-.661-1.726-1.153a6.296 6.296 0 0 1-1.289-1.683c-.66-1.239-.996-2.551-1.301-3.84-.301-1.301-.43-2.633-.57-3.949l-.039-.403.316.231c.844.617 1.75 1.152 2.687 1.636.934.5 1.891.981 2.743 1.672.843.703 1.535 1.551 2.121 2.461.57.91 1.027 1.934 1.144 3.008l-.097.027" style="fill:#eae0cc"/><path d="M61.473 55.379c-.516.449-1.211.613-1.809.746-.617.133-1.242.238-1.875.258-.633.008-1.277-.063-1.91-.024-.629.039-1.246.18-1.863.344-1.227.371-2.496.485-3.598.84-1.137.309-2.266.828-3.508 1.215l-.055-.086c.911-.918 1.965-1.703 3.243-2.149.644-.214 1.312-.285 1.949-.332.641-.054 1.265-.05 1.906-.035.633.012 1.266-.004 1.887-.117s1.226-.332 1.844-.48c.617-.137 1.246-.18 1.878-.204.645-.027 1.235.036 1.864-.066l.047.09" style="fill:#eae0cc"/></svg>